<?xml version="1.0" encoding="UTF-8" standalone="no"?>
<svg
   xmlns="http://www.w3.org/2000/svg"
   viewBox="0 0 630 630"
   version="1.1">
  <path
     fill="#F0DB4F"
     d="M0 0h630v630H0z" />
  <path
     transform="matrix(1.4659574,0,0,1,158.27436,275.32416)"
     style="fill:#323330;stroke-width:8.04074478"
     d="M 56.119724,182.53695 C 45.231215,195.10062 34.139777,206.40791 17.388226,216.45884 L 6.0809283,189.33152 C 42.934342,169.22965 70.777332,135.72655 95.067081,88.822207 H 14.875493 V 62.951246 H 56.119724 V 8.414759 h 29.328145 c 6.700621,0.8375776 7.119409,3.35031 1.256366,7.538198 v 46.998289 h 15.901045 l 9.01042,-6.281832 21.35823,19.589129 c 5.02547,4.187888 3.7691,6.700621 -3.7691,7.538198 -15.91397,29.315209 -30.152791,51.511019 -42.716454,66.587419 17.589134,5.02547 33.084314,11.72609 46.485554,20.10186 l -12.56366,29.64006 C 109.52176,190.07515 100.10548,182.11816 86.704235,176.25512 V 299.89176 H 56.119724 Z m 202.274986,8.56367 v -37.46009 h -29.72108 v 37.46009 z m -60.30558,-37.46009 h -29.72108 v 37.46009 h 29.72108 z m 60.30558,-27.87097 V 89.56584 h -29.72108 v 36.20372 z m -60.30558,0 V 89.56584 h -29.72108 v 36.20372 z m 0,-111.072969 h 29.32814 c 6.70062,0.837577 7.11941,3.35031 1.25636,7.538198 v 39.46009 h 57.577 V 227.76614 h -27.85592 v -8.79456 h -29.72108 v 80.92018 h -30.5845 v -80.92018 h -29.72108 v 11.30729 H 140.51213 V 61.694879 h 57.577 z" />
</svg>
